<svg xmlns="http://www.w3.org/2000/svg" viewBox="-10 -15 198.89456176757812 240.6503448486328" fill="#0051eb">
  <path d="M81.16 0c-3.89 4.67-6.9 8.35-10 12C58 27.43 44.82 42.91 31.51 58.26c-10 11.51-12.76 24.31-6.37 38.24s17.79 20.34 33.05 20.28c20.75-.08 41.5 0 62.25 0 8.1 0 13.12 4 13.31 10.38.2 6.65-5 11-13.33 11-21.39 0-42.78.29-64.15-.06-22.44-.38-39.5-10.46-49.61-30.63s-8.83-40.5 5-58.55C24 32.83 37.83 17.84 51 2.36 52.11 1 53.3 0 55.22 0h25.94z"/>
  <path d="M97.79 210.62c3.89-4.67 6.9-8.35 10-12 13.2-15.45 26.35-30.93 39.65-46.28 10-11.51 12.77-24.31 6.38-38.24S136 93.8 120.76 93.86c-20.75.08-41.49 0-62.24 0-8.12 0-13.14-4-13.32-10.38-.2-6.65 5-11 13.33-11 21.39 0 42.77-.29 64.15.06 22.43.38 39.5 10.46 49.61 30.63s8.83 40.51-5 58.55c-12.36 16.09-26.16 31.07-39.31 46.56-1.14 1.33-2.3 2.38-4.23 2.37-8.19-.05-16.37-.03-25.96-.03zM65 53.2l44.33-51.36A4.86 4.86 0 0 1 113.19 0h25.95c-6 7.05-11.15 13.08-16.33 19.07C114 29.33 105 39.46 96.33 49.81a8.61 8.61 0 0 1-7.56 3.45C81.38 53.06 74 53.2 65 53.2z"/>
  <path d="M114 157.44l-44.37 51.35a4.83 4.83 0 0 1-3.85 1.84h-26c6.16-7.19 11.43-13.37 16.74-19.52 8.69-10.08 17.5-20 26.05-30.25a8.57 8.57 0 0 1 7.55-3.47c7.42.2 14.82.05 23.88.05z"/>
</svg>